<svg width="12" height="22" viewBox="0 0 12 22" fill="none" xmlns="http://www.w3.org/2000/svg">
<path d="M11.1172 0.389183L8.35891 0.384766C5.26002 0.384766 3.25739 2.43555 3.25739 5.60969V8.01872H0.484013C0.244361 8.01872 0.050293 8.21265 0.050293 8.45185V11.9423C0.050293 12.1815 0.244582 12.3752 0.484013 12.3752H3.25739V21.1826C3.25739 21.4218 3.45146 21.6155 3.69111 21.6155H7.30957C7.54923 21.6155 7.74329 21.4216 7.74329 21.1826V12.3752H10.986C11.2257 12.3752 11.4197 12.1815 11.4197 11.9423L11.4211 8.45185C11.4211 8.337 11.3753 8.22701 11.294 8.14573C11.2128 8.06444 11.1022 8.01872 10.9871 8.01872H7.74329V5.97655C7.74329 4.995 7.97763 4.49672 9.25866 4.49672L11.1168 4.49606C11.3562 4.49606 11.5503 4.30213 11.5503 4.06315V0.82209C11.5503 0.583329 11.3564 0.389625 11.1172 0.389183Z" fill="#3B5998"/>
</svg>
