<svg width="27" height="16" viewBox="0 0 27 16" fill="none" xmlns="http://www.w3.org/2000/svg">
<path d="M26.1984 13.5472C26.1294 13.4356 25.7029 12.5394 23.6504 10.6974C21.5018 8.76854 21.7904 9.08174 24.3784 5.7466C25.9547 3.71544 26.5848 2.47504 26.3876 1.94477C26.2 1.4393 25.0407 1.57264 25.0407 1.57264L21.1859 1.59435C21.1859 1.59435 20.9005 1.55714 20.6872 1.67963C20.4804 1.80057 20.3473 2.07966 20.3473 2.07966C20.3473 2.07966 19.7363 3.65187 18.9218 4.98841C17.2044 7.80877 16.5165 7.95762 16.2359 7.78242C15.5833 7.37463 15.7469 6.14198 15.7469 5.2675C15.7469 2.53396 16.175 1.39434 14.9115 1.09974C14.4913 1.00206 14.1835 0.936937 13.1107 0.926084C11.735 0.912129 10.5692 0.930735 9.9102 1.24239C9.47084 1.45015 9.13251 1.91376 9.33936 1.94011C9.59431 1.97268 10.1716 2.09051 10.4778 2.49364C10.8739 3.01306 10.8595 4.18214 10.8595 4.18214C10.8595 4.18214 11.0872 7.39944 10.3287 7.79947C9.80758 8.07391 9.09402 7.51418 7.5627 4.9543C6.77859 3.64412 6.18531 2.1944 6.18531 2.1944C6.18531 2.1944 6.07146 1.92461 5.86782 1.78041C5.62088 1.60521 5.27453 1.54939 5.27453 1.54939L1.60897 1.57109C1.60897 1.57109 1.05897 1.5866 0.856932 1.81762C0.677342 2.02384 0.842501 2.44868 0.842501 2.44868C0.842501 2.44868 3.71274 8.94064 6.96139 12.2138C9.94227 15.214 13.3256 15.0171 13.3256 15.0171H14.8585C14.8585 15.0171 15.322 14.9675 15.5577 14.7209C15.7757 14.4946 15.7677 14.0697 15.7677 14.0697C15.7677 14.0697 15.7373 12.0804 16.6929 11.7874C17.6342 11.499 18.8432 13.71 20.1244 14.5612C21.0929 15.2047 21.8289 15.0636 21.8289 15.0636L25.2555 15.0171C25.2555 15.0171 27.0482 14.9101 26.1984 13.5472Z" fill="#4D76A1"/>
</svg>
