<svg width="23" height="16" viewBox="0 0 23 16" fill="none" xmlns="http://www.w3.org/2000/svg">
<path d="M22.2822 2.54057C22.0205 1.56817 21.2538 0.801673 20.2816 0.539826C18.5053 0.0537109 11.4001 0.0537109 11.4001 0.0537109C11.4001 0.0537109 4.29506 0.0537109 2.51876 0.521296C1.56524 0.78297 0.779867 1.56834 0.518193 2.54057C0.0507812 4.3167 0.0507812 8.00022 0.0507812 8.00022C0.0507812 8.00022 0.0507812 11.7023 0.518193 13.4599C0.78004 14.4321 1.54653 15.1988 2.51893 15.4606C4.31377 15.9467 11.4003 15.9467 11.4003 15.9467C11.4003 15.9467 18.5053 15.9467 20.2816 15.4792C21.254 15.2175 22.0205 14.4508 22.2823 13.4786C22.7498 11.7023 22.7498 8.01893 22.7498 8.01893C22.7498 8.01893 22.7685 4.3167 22.2822 2.54057Z" fill="#FF0000"/>
<path d="M9.1377 11.4036L15.0461 8.00065L9.1377 4.59766V11.4036Z" fill="white"/>
</svg>
