<svg width="84" height="84" viewBox="0 0 84 84" fill="none" xmlns="http://www.w3.org/2000/svg">
<path fill-rule="evenodd" clip-rule="evenodd" d="M42 84C65.196 84 84 65.196 84 42C84 18.804 65.196 0 42 0C18.804 0 0 18.804 0 42C0 65.196 18.804 84 42 84Z" fill="#F8FAFB"/>
<path fill-rule="evenodd" clip-rule="evenodd" d="M34 32C34 27.5817 37.5817 24 42 24C46.4183 24 50 27.5817 50 32C50 36.4183 46.4183 40 42 40C37.5817 40 34 36.4183 34 32ZM42 20C35.3726 20 30 25.3726 30 32C30 38.6274 35.3726 44 42 44C48.6274 44 54 38.6274 54 32C54 25.3726 48.6274 20 42 20ZM32 44.5017C28.8394 44.5017 25.7948 45.7138 23.5395 47.8922C21.2818 50.0729 20 53.0457 20 56.1606V62.0017C20 63.1063 20.8954 64.0017 22 64.0017C23.1046 64.0017 24 63.1063 24 62.0017V56.1606C24 54.1522 24.8254 52.2114 26.3184 50.7693C27.8138 49.3249 29.8563 48.5017 32 48.5017H52C54.1437 48.5017 56.1862 49.3249 57.6816 50.7693C59.1746 52.2114 60 54.1522 60 56.1606V62.0017C60 63.1063 60.8954 64.0017 62 64.0017C63.1046 64.0017 64 63.1063 64 62.0017V56.1606C64 53.0457 62.7182 50.0729 60.4605 47.8922C58.2052 45.7138 55.1606 44.5017 52 44.5017H32Z" fill="#D4DAEC"/>
</svg>
